P2
# TD1
12 12
14
3 4 4 4 3 4 3 2 3 3 3 0
4 3 3 3 4 4 3 11 3 1 2 1
4 3 4 4 3 3 4 3 2 2 1 1
3 3 3 5 6 5 8 5 2 0 2 14
3 4 4 5 5 6 7 5 1 2 1 2
3 3 3 5 5 7 6 6 2 1 0 2
4 3 3 5 6 5 5 7 1 1 0 1
3 4 4 3 5 6 5 8 1 0 1 0
3 3 3 4 4 4 3 5 2 2 0 2
4 4 3 3 2 2 3 2 3 1 2 2
3 12 3 3 2 1 2 1 2 12 2 1
4 3 2 3 3 2 1 2 3 2 1 0